<svg xmlns="http://www.w3.org/2000/svg" viewBox="0 0 16 16">
  <path d="M3,2 C3,1 4,1 4,1 L12,1 C12,1 13,1 13,2 L13,14 C13,15 12,15 12,15 L4,15 C4,15 3,15 3,14 Z" fill="currentColor" />
  <path d="M3,2 L13,2 L13,6 L3,6 Z" fill="currentColor" fill-opacity="0.2" />
  <circle cx="5" cy="4" r="1" fill="currentColor" />
  <path d="M7,3 L11,3" stroke="currentColor" stroke-width="0.8" stroke-linecap="round" />
  <path d="M7,5 L10,5" stroke="currentColor" stroke-width="0.8" stroke-linecap="round" />
  
  <!-- RSS arcs in symbolic style -->
  <path d="M5,10 A3,3 0 0 1 8,7" fill="none" stroke="currentColor" stroke-width="1.2" stroke-linecap="round" stroke-opacity="0.8"/>
  <path d="M5,13 A6,6 0 0 1 11,7" fill="none" stroke="currentColor" stroke-width="1.2" stroke-linecap="round" stroke-opacity="0.8"/>
  <circle cx="5" cy="7" r="1" fill="currentColor" />
</svg>
