<svg width="512" height="512" viewBox="0 0 512 512" fill="none" xmlns="http://www.w3.org/2000/svg">
  <defs>
    <linearGradient id="g" x1="0" y1="0" x2="512" y2="512" gradientUnits="userSpaceOnUse">
      <stop stop-color="#8839ef"/>
      <stop offset="1" stop-color="#1e66f5"/>
    </linearGradient>
  </defs>
  
  <!-- Background -->
  <rect width="512" height="512" rx="128" fill="url(#g)"/>
  
  <!-- Subtle Shadow for Paper -->
  <rect x="125" y="95" width="282" height="302" rx="28" fill="black" fill-opacity="0.1"/>
  
  <!-- Main Paper Body -->
  <rect x="110" y="80" width="282" height="302" rx="24" fill="white"/>
  
  <!-- Folded Corner Detail -->
  <path d="M342 80L392 130V104C392 90.7452 381.255 80 368 80H342Z" fill="#ccd0da"/>
  
  <!-- Newspaper Headline -->
  <rect x="140" y="125" width="180" height="30" rx="8" fill="#1e66f5"/>
  
  <!-- Content Bars -->
  <rect x="140" y="180" width="222" height="12" rx="6" fill="#6c6f85" fill-opacity="0.3"/>
  <rect x="140" y="210" width="222" height="12" rx="6" fill="#6c6f85" fill-opacity="0.2"/>
  <rect x="140" y="240" width="160" height="12" rx="6" fill="#6c6f85" fill-opacity="0.15"/>
  
  <!-- More Bars -->
  <rect x="140" y="285" width="105" height="12" rx="6" fill="#6c6f85" fill-opacity="0.2"/>
  <rect x="257" y="285" width="105" height="12" rx="6" fill="#6c6f85" fill-opacity="0.2"/>
  <rect x="140" y="315" width="222" height="12" rx="6" fill="#6c6f85" fill-opacity="0.15"/>
  
  <!-- AI Sparkles (Catppuccin Green for 'Diet/Healthy') -->
  <path d="M420 330L434 365L470 375L434 385L420 420L406 385L370 375L406 365L420 330Z" fill="#40a02b"/>
  <path d="M465 295L471 310L485 315L471 320L465 335L459 320L445 315L459 310L465 295Z" fill="#40a02b" fill-opacity="0.7"/>
</svg>
